# xmcd
#
# Track frame offsets:
#	150
#	14059
#	25015
#	34687
#	44732
#	53262
#	62202
#	75680
#	92892
#	106640
#	119237
#	130465
#	145452
#	156537
#
# Disc length: 2199 seconds
#
# Revision: 1
# Processed by: cddbd v1.4PL0 Copyright (c) Steve Scherf et al.
# Submitted via: audiograbber 1.81.03
#
DISCID=c808950e
DTITLE=Johnny Rebel - For Segregationists Only - For Segregationists Only
DYEAR=1900
DGENRE=Country
TTITLE0=02 Some niggers never die
TTITLE1=02 Stay away from Dixie
TTITLE2=03 Nigger hatin' me
TTITLE3=04 Who likes a nigger?
TTITLE4=05 Nigger,nigger
TTITLE5=06 Move them niggers north
TTITLE6=07 Kajun Ku Klux Klan
TTITLE7=08 Lookin' for a handout
TTITLE8=09 Federal aid 
TTITLE9=10 Keep a workin' big Jim
TTITLE10=11 Coon Town
TTITLE11=12 Still lookin' for a handout
TTITLE12=13 Cowboys and niggers (James Crow)
TTITLE13=14 Johnny Rebel (Colonel Lou)
EXTD=
EXTT0=
EXTT1=
EXTT2=
EXTT3=
EXTT4=
EXTT5=
EXTT6=
EXTT7=
EXTT8=
EXTT9=
EXTT10=
EXTT11=
EXTT12=
EXTT13=
PLAYORDER=
